<svg width="75" height="43" viewBox="0 0 75 43" fill="none" xmlns="http://www.w3.org/2000/svg">
<path d="M75 41.8606C72.2721 42.5461 70.5851 41.8901 69.0716 39.6446C65.6736 34.6158 61.9227 29.8175 58.3034 24.9306C57.8368 24.2983 57.3522 23.6778 56.748 22.8919C52.4647 28.6002 48.1874 34.0367 44.1732 39.6919C42.7375 41.7129 41.23 42.5933 38.5499 41.8783L54.6542 20.5282L39.6626 1.24631C42.241 0.749933 44.0237 1.00403 45.603 3.285C49.0907 8.31968 52.9373 13.1121 56.772 18.1822C60.6305 13.1298 64.4293 8.3315 68.0187 3.34409C69.4604 1.32313 71.0098 0.554928 73.6001 1.29949C71.638 3.87002 69.7176 6.39918 67.7854 8.91061C65.1771 12.2966 62.6167 15.724 59.9127 19.0391C58.9495 20.2209 59.1051 20.9891 59.9665 22.106C64.9677 28.6002 69.9091 35.1595 75 41.8606ZM0.0179469 20.1736C0.448672 18.0404 0.735822 15.8658 1.33405 13.7739C4.92343 1.1104 19.6399 -4.15474 29.7499 3.69274C35.6724 8.29605 37.1441 14.7844 36.8509 22.1001H3.46973C2.96722 35.2245 12.5329 43.1488 24.7248 39.1069C29.0022 37.6887 31.5207 34.3795 32.783 30.243C33.4231 28.1689 34.4819 27.8438 36.4561 28.4348C35.4451 33.6113 33.1539 37.9368 28.368 40.6433C21.1893 44.697 10.9416 43.3852 5.55157 37.7537C2.36899 34.4445 1.01699 30.3257 0.418761 25.8761C0.329026 25.167 0.143575 24.4697 0 23.7665C0.0119646 22.5689 0.0179469 21.3712 0.0179469 20.1736ZM3.52955 19.2932H33.6983C33.5008 9.80291 27.5185 3.06045 19.3408 3.00136C10.3673 2.93045 3.9184 9.51335 3.52955 19.2932Z" fill="#D8A48F"/>
</svg>
