<svg width="49" height="49" viewBox="0 0 49 49" fill="none" xmlns="http://www.w3.org/2000/svg">
<g clip-path="url(#clip0_1362_32)">
<path d="M24.5 0C18.0022 0 11.7705 2.58124 7.17588 7.17588C2.58124 11.7705 0 18.0022 0 24.5C0 30.9978 2.58124 37.2295 7.17588 41.8241C11.7705 46.4188 18.0022 49 24.5 49C29.3414 48.9904 34.0714 47.5467 38.0929 44.8511L17.9975 18.888V34.2916H14.7V14.7H18.8221L40.6903 42.8689C43.2992 40.5718 45.3894 37.7459 46.8222 34.5788C48.2549 31.4117 48.9973 27.9761 49 24.5C49 18.0022 46.4188 11.7705 41.8241 7.17588C37.2295 2.58124 30.9978 0 24.5 0ZM31.3053 14.7H34.5722V33.3721L31.3053 29.0823V14.7ZM40.5617 42.9975L40.5192 43.0343C40.5334 43.022 40.5475 43.0098 40.5617 42.9975Z" fill="#D8A48F"/>
</g>
<defs>
<clipPath id="clip0_1362_32">
<rect width="49" height="49" fill="white"/>
</clipPath>
</defs>
</svg>
