<svg width="43" height="45" viewBox="0 0 43 45" fill="none" xmlns="http://www.w3.org/2000/svg">
<path fill-rule="evenodd" clip-rule="evenodd" d="M42.9711 27.2444C42.8075 26.167 41.9169 25.4613 40.881 25.4137C40.506 25.3963 40.1252 25.4362 39.7513 25.4846C39.2996 25.5429 38.8534 25.6463 38.4028 25.7146C38.0914 25.7619 37.7756 25.7837 37.4646 25.8162L37.457 25.7752C38.0376 24.6608 38.6426 23.5586 39.192 22.4283C39.6132 21.5614 39.9736 20.663 40.3461 19.772C40.9624 18.2957 41.4547 16.7737 41.8624 15.2269C42.253 13.7459 42.5873 12.2486 42.6924 10.7122C42.7345 10.0985 42.7636 9.48223 42.7603 8.8678C42.7574 8.37781 42.7054 7.88709 42.6571 7.39857C42.6026 6.8388 42.4362 6.30819 42.2058 5.79752C41.902 5.12476 41.4311 4.57274 40.9355 4.04841C40.5387 3.62858 40.1023 3.24604 39.6695 2.86387C39.0525 2.31849 38.3588 1.88315 37.6383 1.49655C36.822 1.05579 35.9572 0.714939 35.062 0.481127C34.5195 0.340444 33.9646 0.235948 33.4152 0.124436C33.2176 0.0838187 33.0195 0 32.8219 0H29.1006C28.9662 0 28.8328 0.0705259 28.6973 0.0860342C27.8063 0.186838 26.9259 0.35743 26.0709 0.62661C25.7511 0.727414 25.4589 0.663904 25.1552 0.635472C24.9223 0.613686 24.6933 0.550176 24.4604 0.53836C23.5731 0.493312 22.6846 0.427217 21.7977 0.436818C20.9477 0.445679 20.1066 0.587839 19.2839 0.825264C18.5953 1.02392 17.9216 1.26651 17.3046 1.63428C17.0405 1.79158 16.8312 1.76204 16.5579 1.68191C15.6397 1.41273 14.7149 1.1598 13.7821 0.947484C13.2008 0.815294 12.603 0.749569 12.0093 0.686428C11.4395 0.626257 10.8676 0.59004 10.2949 0.577869C9.73606 0.565684 9.1732 0.566054 8.61689 0.616271C7.7308 0.69455 6.85738 0.882153 6.0159 1.17494C5.08397 1.4983 4.21319 1.98094 3.44109 2.60207C2.65367 3.23533 2.02214 4.00853 1.51415 4.8914C0.978911 5.823 0.61191 6.82034 0.383716 7.86789C0.260171 8.43542 0.182047 9.01882 0.0973824 9.59522C0.0708566 9.77467 0.363367 9.95412 0 10.1328V12.6415C0.363367 12.8084 0.0755803 12.9749 0.0966556 13.1422C0.147164 13.5443 0.191858 13.9497 0.258717 14.3489C0.364457 14.9807 0.489819 15.6106 0.617724 16.2383C0.795326 17.1157 0.982593 17.9909 1.17949 18.864C1.32338 19.4991 1.48726 20.1305 1.65877 20.7586C1.92076 21.7179 2.17875 22.6791 2.47489 23.6277C2.74996 24.509 3.065 25.3779 3.3775 26.2467C3.81027 27.4486 4.32843 28.6117 4.94979 29.7265C5.48721 30.6917 6.1013 31.5956 6.92505 32.3393C7.46792 32.8293 8.0722 33.2059 8.77568 33.3942C9.32836 33.5419 9.89013 33.5596 10.4559 33.4418C11.1005 33.3086 11.7026 33.0155 12.2088 32.5885C12.268 32.539 12.333 32.5014 12.4032 32.5922C12.6702 32.936 13.0278 33.1653 13.4017 33.3636C14.4108 33.8982 15.5103 34.0585 16.6273 34.1238C16.8977 34.1397 17.1709 34.1002 17.4434 34.0924C17.9743 34.0777 18.4903 33.9724 18.9979 33.8233C19.2639 33.745 19.5237 33.6457 19.7944 33.553C19.8086 33.8458 19.8268 34.1279 19.8351 34.41L19.8729 35.9483C19.8798 36.1824 19.8889 36.4172 19.9103 36.6502C19.9652 37.251 20.019 37.8521 20.0895 38.451C20.1385 38.8638 20.1894 39.28 20.285 39.6828C20.4766 40.4961 20.739 41.2904 21.0691 42.0563C21.3852 42.7998 21.871 43.4561 22.4862 43.9709C23.2929 44.6488 24.2384 44.9379 25.2595 44.9915C25.6817 45.014 26.1159 44.9929 26.5316 44.9161C27.1923 44.7968 27.8458 44.6396 28.4891 44.4454C29.7939 44.0451 30.9218 43.3539 31.7645 42.2369C32.2441 41.6003 32.638 40.9117 32.8909 40.1514C33.0995 39.5233 33.296 38.8889 33.4523 38.2461C33.5758 37.7395 33.6369 37.217 33.7121 36.6997C33.7619 36.3574 33.7917 36.0118 33.8229 35.6669C33.8738 35.1068 33.9258 34.547 33.9625 33.9857C33.9879 33.5951 33.9868 33.2026 34.0021 32.8112C34.0068 32.6919 34.0257 32.5734 34.0366 32.4545C34.0468 32.3444 34.1013 32.3064 34.2117 32.3083C34.6009 32.3142 34.9908 32.3245 35.3789 32.3068C35.8138 32.2868 36.2528 32.268 36.6808 32.1949C37.2907 32.0914 37.8958 31.9599 38.494 31.8009C39.2 31.6133 39.8476 31.2773 40.4707 30.8944C41.1967 30.4487 41.8584 29.9259 42.3955 29.2524C42.8624 28.6649 43.0837 27.9859 42.9711 27.2444ZM41.7313 27.607C41.7073 27.9449 41.555 28.2344 41.3341 28.4818C40.2916 29.6497 38.9838 30.3583 37.4879 30.7072C36.9195 30.8394 36.3331 30.9081 35.7513 30.9627C35.2543 31.0071 34.755 31.0191 34.2564 30.9985C33.8909 30.9845 33.5282 30.8996 33.1547 30.8449C33.1173 31.192 33.0817 31.5535 33.0384 31.9143L32.8644 33.2971C32.8117 33.7354 32.7706 34.1752 32.7165 34.6131C32.6634 35.0381 32.5973 35.4616 32.5417 35.8866C32.4897 36.2824 32.4516 36.6801 32.3938 37.0752C32.3048 37.6808 32.2198 38.2878 32.1035 38.8886C31.9639 39.6068 31.7499 40.3024 31.4007 40.9501C30.9749 41.7406 30.3709 42.3429 29.6024 42.7889C28.8103 43.249 27.9444 43.4883 27.0665 43.6884C26.4451 43.8302 25.8049 43.8535 25.1755 43.7958C24.084 43.6954 23.1523 43.2209 22.4481 42.361C21.7759 41.5401 21.3209 40.5993 21.1581 39.5344C21.0821 39.0275 21.0226 38.5181 20.9797 38.0072C20.9315 37.4394 20.8953 36.8706 20.8711 36.3013C20.8389 35.579 20.815 34.8563 20.7995 34.1334C20.7802 33.245 20.7741 32.3566 20.7617 31.4682L20.7595 31.4342C20.3148 31.7053 19.8776 32.0021 19.414 32.2466C18.8721 32.5314 18.279 32.7014 17.6705 32.7462C17.1916 32.7831 16.7065 32.8167 16.2298 32.7779C15.4482 32.7141 14.6673 32.5896 13.9675 32.1986C13.6837 32.0398 13.3875 31.8467 13.192 31.593C12.7233 30.9852 12.9479 30.2172 13.6546 29.8476C14.143 29.5917 14.676 29.485 15.2055 29.3606C15.6663 29.2543 16.1222 29.1276 16.5721 28.9806C17.0161 28.8329 17.2963 28.467 17.5728 28.1081L18.011 27.5354C17.8282 27.5158 17.656 27.4959 17.4838 27.4796C16.9609 27.4294 16.462 27.2832 15.9849 27.0683C15.5765 26.8848 15.5703 26.8648 15.2709 27.1949C14.7709 27.7466 14.2847 28.3112 13.7949 28.8721C13.4344 29.2845 13.0761 29.6995 12.7175 30.1131C12.3621 30.5222 12.0293 30.9546 11.6466 31.3353C11.0783 31.9006 10.3934 32.2407 9.57618 32.2023C9.05184 32.1779 8.57183 31.9911 8.14015 31.6857C7.24917 31.055 6.64889 30.1729 6.10239 29.2465C5.40218 28.0593 4.86476 26.7947 4.40474 25.4953C4.08643 24.5973 3.76666 23.6985 3.48869 22.7876C3.18673 21.7977 2.92183 20.7952 2.6613 19.793C2.46669 19.0359 2.28715 18.2749 2.12279 17.5104C1.93114 16.6421 1.75379 15.7707 1.59082 14.8965C1.48254 14.3061 1.41968 13.7071 1.3321 13.1126C1.21401 12.3114 1.19221 11.5027 1.23508 10.6982C1.27324 9.97332 1.37571 9.25034 1.47745 8.53031C1.61844 7.53409 1.94147 6.59399 2.40622 5.70632C2.69073 5.16242 3.04393 4.668 3.45235 4.20866C4.12276 3.45466 4.93416 2.90966 5.83676 2.50053C6.46757 2.21474 7.13399 2.04267 7.81312 1.90826C8.8211 1.70887 9.83816 1.71662 10.8556 1.73804C11.3004 1.74727 11.7433 1.82961 12.1877 1.87429C13.1444 1.97103 14.0823 2.1756 15.0082 2.42816C15.6829 2.61204 16.3439 2.85021 17.0132 3.05698C17.0804 3.07766 17.1789 3.07582 17.2338 3.03926C18.1407 2.43776 19.132 2.04082 20.1861 1.81373C20.5862 1.7277 20.999 1.69004 21.4081 1.66345C21.9056 1.63133 22.407 1.60179 22.9034 1.63096C23.5 1.66567 24.0938 1.75502 24.6868 1.83774C24.9746 1.87761 25.2555 1.97916 25.544 2.00685C25.6821 2.02014 25.8285 1.91749 25.9746 1.88315C26.7191 1.7085 27.4604 1.51391 28.2115 1.37581C28.7707 1.27316 29.3419 1.22479 29.9106 1.19156C30.5446 1.15463 31.1834 1.12768 31.8171 1.15869C32.6196 1.19907 33.4168 1.31314 34.199 1.49951C35.1718 1.72955 36.1049 2.06371 36.9919 2.52749C37.6546 2.87384 38.2847 3.27558 38.8519 3.76963C39.2237 4.09383 39.6041 4.41396 39.9399 4.77508C40.3541 5.22039 40.7767 5.66607 41.0365 6.23656C41.232 6.66673 41.3715 7.11204 41.41 7.5832C41.458 8.16882 41.5161 8.75666 41.5107 9.34302C41.5056 9.90391 41.4304 10.4644 41.377 11.0238C41.2556 12.2992 40.9827 13.5469 40.6513 14.7779C40.3741 15.7949 40.0603 16.8011 39.7106 17.7947C39.3912 18.7108 39.0227 19.6103 38.6503 20.5061C38.3761 21.1696 38.0782 21.8227 37.7571 22.4642C37.1477 23.6775 36.514 24.8783 35.7811 26.0211C35.6547 26.2187 35.5348 26.421 35.4112 26.6226C35.731 26.8419 36.0932 26.9191 36.4581 26.959C36.8051 26.9974 37.159 27.0203 37.5057 26.9941C38.0605 26.9523 38.6136 26.8718 39.1652 26.7932C39.7117 26.7157 40.2473 26.5576 40.8083 26.5993C41.3686 26.6407 41.7694 27.0735 41.7313 27.607ZM33.7325 26.3689C33.4944 26.0566 33.2517 25.7479 33.0188 25.4318C32.6533 24.9355 32.3905 24.3813 32.1267 23.8245C31.8767 23.2968 31.5701 22.7972 31.3066 22.2755C30.847 21.3653 30.3789 20.4581 29.9556 19.5301C29.4233 18.3644 29.0036 17.1574 28.8713 15.8661C28.8154 15.3196 28.8012 14.7739 28.9098 14.2326C29.0839 13.3682 29.5283 12.6921 30.2754 12.2283C30.9683 11.7981 31.7405 11.6593 32.5315 11.6157C33.0224 11.5888 33.5155 11.6109 34.025 11.6109L34.0079 11.5234C33.691 10.8503 33.3949 10.1657 33.0482 9.50844C32.5591 8.5809 31.9334 7.74456 31.2365 6.96914C30.7201 6.39496 30.1609 5.86214 29.5483 5.39135C28.9458 4.92795 28.311 4.51403 27.6337 4.17543C26.8259 3.77184 25.9847 3.45983 25.1021 3.26081C24.254 3.06954 23.4005 2.95249 22.5306 2.94289C21.7886 2.93476 21.0513 2.96873 20.3286 3.13896C19.2377 3.39558 18.2399 3.85197 17.3719 4.5912C16.8916 5.0005 16.4624 5.468 16.0939 5.98326C15.6593 6.58993 15.3087 7.24497 15.0089 7.93176C14.5975 8.87408 14.3152 9.8548 14.1223 10.8628C14.0256 11.3654 13.95 11.8724 13.873 12.379C13.8461 12.5562 13.8439 12.7375 13.8283 12.9406C13.9624 12.8697 14.059 12.815 14.1579 12.7663L14.4795 12.6197C15.567 12.1142 16.6938 11.7889 17.9049 11.8262C18.4194 11.8421 18.9118 11.9455 19.3693 12.1744C20.2468 12.6142 20.7603 13.3619 20.9834 14.3083C21.1374 14.9615 21.2428 15.6276 21.3453 16.2919C21.4256 16.8106 21.5077 17.335 21.5171 17.8582C21.5306 18.6229 21.4924 19.3891 21.4514 20.1534C21.4161 20.8034 21.2838 21.4441 21.0589 22.0536C20.652 23.1587 20.1985 24.2458 19.7748 25.3446C19.6349 25.7076 19.5273 26.0835 19.3951 26.4827C19.5993 26.4827 19.765 26.4812 19.9307 26.4834C19.9954 26.4845 20.0615 26.4864 20.124 26.5015C20.6109 26.6182 21.0331 26.8423 21.3794 27.223C21.8413 27.7296 22.0836 28.3208 22.096 29.005C22.1029 29.3842 22.0636 29.7645 22.0655 30.1437C22.0731 31.9109 22.0862 33.6782 22.1007 35.445C22.1033 35.7337 22.1174 36.0229 22.1378 36.3112C22.1803 36.915 22.2232 37.519 22.2813 38.1213C22.322 38.5485 22.3787 38.975 22.4452 39.3992C22.5393 40.0004 22.8085 40.5354 23.1141 41.0468C23.3772 41.4866 23.7191 41.8603 24.1697 42.118C24.9353 42.5559 25.7598 42.5925 26.5908 42.4311C27.1522 42.3222 27.7035 42.1472 28.2485 41.9666C28.7845 41.7919 29.2739 41.4945 29.6791 41.0974C30.061 40.7211 30.3321 40.2625 30.5148 39.7563C30.8695 38.7745 30.9799 37.7406 31.1267 36.7148C31.1816 36.3308 31.2292 35.9457 31.2794 35.5609C31.3364 35.123 31.3942 34.6855 31.4494 34.2479C31.4901 33.9219 31.5272 33.5951 31.5664 33.269C31.6224 32.8008 31.6816 32.333 31.735 31.8644C31.7761 31.5022 31.811 31.1385 31.8473 30.7755C31.8942 30.3117 31.9447 29.848 31.985 29.3835C32.0163 29.0308 32.0036 28.6719 32.065 28.3259C32.178 27.6916 32.473 27.1517 33.0264 26.8028C33.2579 26.6569 33.5192 26.5609 33.7761 26.4376L33.7325 26.3689ZM12.8036 23.765C12.5276 23.1055 12.3614 22.404 12.3116 21.6891C12.2651 21.0152 12.3439 20.344 12.4119 19.673C12.478 19.0232 12.5329 18.3703 12.5522 17.7175C12.5841 16.6445 12.5129 15.5729 12.4624 14.5006C12.4319 13.8622 12.5049 13.216 12.5609 12.5761C12.6114 11.9997 12.6742 11.4219 12.7814 10.854C12.9613 9.90095 13.2 8.96159 13.5394 8.05103C13.8617 7.18773 14.232 6.34696 14.7549 5.59001C15.1132 5.07085 15.5198 4.58566 15.9104 4.07832L15.7945 4.03659C14.5234 3.62636 13.2316 3.30586 11.9032 3.16591C11.2749 3.09982 10.6445 3.06105 10.0144 3.02301C9.82109 3.0112 9.62487 3.03778 9.43083 3.05661C8.95046 3.10314 8.46427 3.1216 7.99153 3.21318C7.18704 3.36863 6.41525 3.63005 5.7005 4.05579C5.0588 4.43796 4.51992 4.93201 4.06862 5.52465C3.57008 6.17896 3.23469 6.91892 2.99378 7.708C2.70926 8.63887 2.57373 9.59669 2.53703 10.5634C2.50505 11.4108 2.48906 12.263 2.63296 13.1071C2.74015 13.7356 2.81173 14.3707 2.92983 14.9965C3.0908 15.8499 3.2634 16.7013 3.46289 17.5458C3.74813 18.7547 4.03301 19.9655 4.37094 21.1596C4.69434 22.3039 5.05916 23.4379 5.4545 24.5582C5.7779 25.4724 6.1518 26.3697 6.54569 27.2551C6.80223 27.8319 7.11291 28.3869 7.43849 28.9271C7.78478 29.5005 8.17867 30.0448 8.71318 30.4609C9.38759 30.9864 9.90975 31.068 10.5951 30.4916C10.8887 30.2445 11.1368 29.9395 11.3923 29.6489C11.7982 29.1874 12.1899 28.7133 12.5939 28.2502C13.1085 27.6602 13.6295 27.0764 14.1466 26.4893C14.256 26.3652 14.361 26.2375 14.4675 26.1119L14.2916 25.955C13.653 25.3365 13.1465 24.591 12.8036 23.765ZM32.3121 6.20037C32.7348 6.69984 33.136 7.21776 33.5144 7.75268C34.2412 8.78989 34.8218 9.90981 35.2495 11.108C35.4388 11.636 35.59 12.1692 35.5224 12.7471C35.4755 13.1518 35.4795 13.5624 35.4443 13.9693C35.4148 14.3079 35.3622 14.6446 35.3189 14.9821C35.2542 15.491 35.1605 15.9983 35.1325 16.5093C35.106 16.9956 35.1336 17.4871 35.1638 17.9745C35.1943 18.4697 35.2601 18.9626 35.3047 19.457C35.3553 20.0175 35.4232 20.5781 35.4388 21.1397C35.4515 21.6009 35.4112 22.065 35.3716 22.5255C35.3244 23.0801 35.1859 23.6169 34.9795 24.132C34.8345 24.4946 34.6612 24.8462 34.4973 25.2091L34.5631 25.28L34.663 25.3587L34.7637 25.1755C35.6137 23.8162 36.3691 22.3982 37.0246 20.9318C37.4439 19.9852 37.8422 19.0291 38.2189 18.0642C38.8091 16.5636 39.276 15.0209 39.6372 13.4476C39.7992 12.7412 39.9231 12.0241 40.0332 11.307C40.119 10.7465 40.1906 10.1794 40.2066 9.61368C40.2236 9.01365 40.1909 8.40883 40.1364 7.81028C40.0957 7.35833 39.986 6.90342 39.7073 6.53602C39.2593 5.94449 38.7756 5.3788 38.1808 4.93127C37.6801 4.55428 37.1812 4.16768 36.6437 3.85049C35.7917 3.34832 34.8694 3.01378 33.9058 2.78596C32.9654 2.5633 32.0126 2.4673 31.0537 2.44699C30.4883 2.43481 29.9204 2.49647 29.3561 2.55038C28.8448 2.59912 28.3368 2.6822 27.8219 2.75088C28.3742 3.06658 28.9189 3.34721 29.4327 3.67806C30.513 4.37334 31.481 5.21006 32.3121 6.20037ZM18.277 25.6677C18.6262 24.533 19.1018 23.4497 19.5626 22.3597C19.9361 21.4757 20.1403 20.5445 20.2083 19.5881C20.2421 19.1166 20.2326 18.6391 20.2097 18.1661C20.187 17.6399 20.1395 17.1151 20.0673 16.5935C19.9707 15.9285 19.8606 15.2631 19.7058 14.6103C19.5379 13.9039 19.1146 13.4121 18.3893 13.2308C17.9474 13.1204 17.5085 13.1248 17.0619 13.1965C15.9711 13.3711 14.9725 13.7795 14.0423 14.3777C13.8552 14.4981 13.7524 14.5952 13.7847 14.868C13.853 15.4459 13.8679 16.033 13.8654 16.6164C13.8617 17.4421 13.8272 18.2677 13.7963 19.093C13.7861 19.3618 13.748 19.6291 13.7196 19.8968C13.676 20.3067 13.5921 20.7162 13.5947 21.1253C13.5972 21.547 13.6397 21.9786 13.7404 22.387C14.0601 23.6819 14.7374 24.7417 15.8475 25.4894C16.5303 25.9491 17.2857 26.181 18.1149 26.2249C18.1713 26.0314 18.2214 25.8487 18.277 25.6677ZM16.974 14.5582C16.8279 14.2466 16.9115 13.9885 17.2501 13.8689C17.3326 13.8393 17.4176 13.8079 17.5034 13.7994C17.6211 13.7876 17.741 13.7965 17.8602 13.7965C18.2897 13.7987 18.7029 13.8596 19.0575 14.1373C19.285 14.3153 19.346 14.5516 19.1989 14.7942C18.9899 15.1383 18.6713 15.3111 18.2799 15.3444C17.6633 15.3964 17.2305 15.1044 16.974 14.5582ZM34.0667 14.4445C34.1162 14.0295 34.1558 13.6133 34.2063 13.1983C34.2266 13.0314 34.1401 12.9864 34.0024 12.9823C33.5693 12.9701 33.1362 12.9546 32.703 12.9465C32.2147 12.9376 31.7394 13.0174 31.2874 13.2061C30.7859 13.4158 30.404 13.7518 30.2481 14.3064C30.1341 14.7154 30.0979 15.1428 30.1417 15.5655C30.2024 16.2193 30.3481 16.862 30.5752 17.4768C30.8782 18.2969 31.1954 19.1166 31.5744 19.9023C32.0879 20.9661 32.6689 21.996 33.2143 23.0435C33.36 23.323 33.4825 23.6147 33.6343 23.9411C33.9406 23.2922 34.1079 22.5847 34.1253 21.8652C34.1402 21.2708 34.0933 20.6737 34.0591 20.0788C34.0377 19.7148 33.9872 19.3529 33.9523 18.9896C33.9036 18.4833 33.8298 17.9775 33.8186 17.4701C33.8073 16.9543 33.8433 16.4355 33.8869 15.9204C33.9279 15.4263 34.0082 14.9364 34.0667 14.4445ZM33.0897 14.045C32.9287 14.4966 32.5846 14.7514 32.1384 14.8263C31.7223 14.8957 31.3579 14.7395 31.0868 14.4024C30.8938 14.1624 30.9676 13.8781 31.2568 13.716C31.5889 13.5292 31.9541 13.4819 32.3847 13.4535C32.5017 13.4752 32.678 13.4933 32.8455 13.5421C33.0886 13.6119 33.1783 13.7976 33.0897 14.045ZM20.2185 27.9508C19.9805 27.7532 19.6658 27.7418 19.4394 27.9585C19.1585 28.2281 18.9114 28.5364 18.6643 28.8403C18.3791 29.1915 18.1117 29.5566 17.7436 29.8288C17.208 30.2242 16.5837 30.3882 15.9562 30.5433C15.4573 30.6666 14.9562 30.7811 14.4558 30.8996L14.4497 30.9653C14.5983 31.0351 14.7422 31.1222 14.897 31.1721C15.66 31.4176 16.4362 31.5398 17.2425 31.4704C17.8246 31.4202 18.3791 31.2913 18.9045 31.038C19.6276 30.6898 20.1839 30.1382 20.6571 29.4964C20.7363 29.3894 20.7722 29.231 20.7817 29.0929C20.814 28.6051 20.5702 28.2425 20.2185 27.9508ZM39.0231 28.145C38.409 28.2118 37.7942 28.2827 37.1783 28.3186C36.881 28.3359 36.5794 28.2783 36.2793 28.2536C35.776 28.2122 35.2848 28.0985 34.8593 27.8252C34.6129 27.6676 34.4083 27.6498 34.1467 27.7392C33.7731 27.867 33.4683 28.0612 33.3782 28.4725C33.3168 28.7506 33.2946 29.0386 33.2699 29.3233C33.2652 29.3735 33.3269 29.4658 33.3742 29.4784C33.6623 29.5555 33.9519 29.6467 34.2466 29.6737C34.6085 29.7069 34.977 29.6962 35.3414 29.6777C35.735 29.6578 36.131 29.632 36.5188 29.5655C37.4326 29.4097 38.3167 29.1556 39.1019 28.6291C39.385 28.4389 39.6655 28.2447 39.9468 28.0523L39.9235 28.0117C39.6234 28.0571 39.3247 28.1125 39.0231 28.145Z" fill="#D8A48F"/>
</svg>
